inDegrees=no
num_controls=7
num_derivatives=13
num_iterations=114
num_multipliers=7
num_parameters=0
num_slacks=7
num_states=26
objective=5.013686
objective_accelerations=0.366710
objective_balance=0.022483
objective_effort=0.175132
objective_height=4.404166
objective_ligament=0.045196
solver_duration=1277.478137
status=Solve_Succeeded
success=true
DataType=double
version=3
OpenSimVersion=4.4-2022-07-23-0e9fedc
endheader
time	/jointset/ground_pelvis/pelvis_tilt/value	/jointset/ground_pelvis/pelvis_tx/value	/jointset/ground_pelvis/pelvis_ty/value	/jointset/hip_l/hip_flexion_l/value	/jointset/hip_l/hip_adduction_l/value	/jointset/hip_l/hip_rotation_l/value	/jointset/back/lumbar_extension/value	/jointset/patellofemoral_l/patellar_flexion_l/value	/jointset/knee_l/knee_flexion_l/value	/jointset/knee_l/knee_adduction_l/value	/jointset/knee_l/knee_rotation_l/value	/jointset/ankle_l/ankle_angle_l/value	/jointset/subtalar_l/subtalar_angle_l/value	/jointset/ground_pelvis/pelvis_tilt/speed	/jointset/ground_pelvis/pelvis_tx/speed	/jointset/ground_pelvis/pelvis_ty/speed	/jointset/hip_l/hip_flexion_l/speed	/jointset/hip_l/hip_adduction_l/speed	/jointset/hip_l/hip_rotation_l/speed	/jointset/back/lumbar_extension/speed	/jointset/patellofemoral_l/patellar_flexion_l/speed	/jointset/knee_l/knee_flexion_l/speed	/jointset/knee_l/knee_adduction_l/speed	/jointset/knee_l/knee_rotation_l/speed	/jointset/ankle_l/ankle_angle_l/speed	/jointset/subtalar_l/subtalar_angle_l/speed	/forceset/tau_hip_flexion_l	/forceset/tau_hip_adduction_l	/forceset/tau_hip_rotation_l	/forceset/tau_knee_flexion_l	/forceset/tau_ankle_angle_l	/forceset/tau_subtalar_angle_l	/forceset/tau_lumbar_extension	lambda_cid13_p0	lambda_cid13_p1	lambda_cid13_p2	lambda_cid13_p3	lambda_cid13_p4	lambda_cid13_p5	lambda_cid14_p0	/jointset/ground_pelvis/pelvis_tilt/accel	/jointset/ground_pelvis/pelvis_tx/accel	/jointset/ground_pelvis/pelvis_ty/accel	/jointset/hip_l/hip_flexion_l/accel	/jointset/hip_l/hip_adduction_l/accel	/jointset/hip_l/hip_rotation_l/accel	/jointset/back/lumbar_extension/accel	/jointset/patellofemoral_l/patellar_flexion_l/accel	/jointset/knee_l/knee_flexion_l/accel	/jointset/knee_l/knee_adduction_l/accel	/jointset/knee_l/knee_rotation_l/accel	/jointset/ankle_l/ankle_angle_l/accel	/jointset/subtalar_l/subtalar_angle_l/accel	gamma_cid13_p0	gamma_cid13_p1	gamma_cid13_p2	gamma_cid13_p3	gamma_cid13_p4	gamma_cid13_p5	gamma_cid14_p0
0.5	-0.123016163988476	0.06268477499804311	0.8204931307086025	0.6318004250975444	-0.4420108710497875	-0.287567855977663	-0.2440379567125207	0.6807817087316501	0.6807817087319672	-0.1631083009875574	-0.1671101159782768	0.2099706375864529	0.02110982800045354	-0.2113488175404529	0.006818716138503433	-0.2982906311445142	1.211066138281999	-0.2569956289024336	0.6578906566470883	-0.1615424546282937	1.642756365315767	1.642756365315859	0.01685811278750603	-0.0465554450743614	0.7612415039963247	0.1295719675049138	-0.06789462787934715	0.02548574339079247	-0.01209499613935867	-0.2277063740059259	-0.008336063037710414	0.02754236510112217	0.09983534266028496	-35.91216218864587	-10.73004688795368	7.150321642525096	2.545198743546828	-532.6536890933027	-72.98223451704375	-31.29214283718968	0.09961391437921149	0.1663343516170445	-0.2889790028617981	-0.6022916078295562	0.539598616330851	-0.121833908205065	0.7949022282638583	-1.121546947494339	-1.121546947494301	-0.08036697575862672	0.1217076662707954	-0.4273173736268158	0.4661041033149706	-9.694926583787787e-08	-8.365669841485269e-07	1.829319389767362e-07	-1.592163178257437e-07	-5.613113148227246e-08	-4.702257657712669e-07	-1.02069494135221e-07
0.51	-0.1251243924558048	0.06276124981774332	0.8174963855727302	0.6438789778153932	-0.4445539693982662	-0.2809967392059178	-0.2456136294601947	0.6971509004433534	0.6971509004432062	-0.1629441003850362	-0.1675704794150118	0.2175604789796965	0.0224281421367891	-0.2102786188701473	0.008472270412251811	-0.3009956408249737	1.204475706759175	-0.2516058125397016	0.6562379820323347	-0.1535823524734788	1.630858211938793	1.630858211938946	0.01598541338965091	-0.04550850183667977	0.7566224435820702	0.134067636053001	-0.07009094773230672	0.02734105901328228	-0.01205275508589817	-0.2301085867928207	-0.01152629782957466	0.02771782724945671	0.1017103803705591	-37.00999097497381	-10.58677015317531	7.096343876754873	2.983247576181551	-534.5224877308565	-72.77868986676488	-30.55518645347189	0.1134722735762385	0.1642394627828647	-0.2518627948196809	-0.712712052474719	0.5414533369534235	-0.2012808570475385	0.7980255741473781	-1.257493182282112	-1.257493182273095	-0.09031924308405191	0.0975401693848115	-0.4948826101164611	0.4379178033865571	-1.118660041933123e-07	-7.812948942283359e-07	2.496726670984456e-07	-1.409509228580914e-07	-7.637108951904641e-08	-4.803179225973511e-07	-1.057558587199855e-07
0.52	-0.1272213690503828	0.06285413487968643	0.8144744701712171	0.6558865675924027	-0.4470426135449809	-0.2744450085041037	-0.2471094089133112	0.7133944018914178	0.7133944018907676	-0.1627885463408241	-0.168020102915898	0.2251009933218394	0.02379073687317112	-0.2090984429910505	0.01010076458707909	-0.3033246842726258	1.19687355011769	-0.246104788548602	0.6540134426601113	-0.1455637957163652	1.617618312582495	1.617618312582709	0.01512880114038945	-0.04440745792428358	0.7513760937761524	0.1384280875143311	-0.07228726758545374	0.02919637463575033	-0.0120105140330577	-0.2325107995796729	-0.01471653262143443	0.0278932893977751	0.1035854180806756	-38.1114422957649	-10.4423696929441	7.04162839785579	3.410870876342312	-536.459597651525	-72.59963619125976	-29.8186893707076	0.1216093561374588	0.161322331832777	-0.2137857563003264	-0.8046366315616771	0.5618401420043763	-0.23620685969896	0.8065931487235766	-1.389896143358946	-1.38989614335888	-0.07714954603988557	0.1325278012137234	-0.5527752519594685	0.4390606859635586	-1.199768734447161e-07	-7.181910105629924e-07	2.963946612936789e-07	-1.237394703544829e-07	-8.798162758696217e-08	-4.747534413285997e-07	-1.061351523459733e-07
0.53	-0.1293059334182223	0.06296315999945168	0.8114311859686708	0.6678130364255489	-0.4494757450457214	-0.2679180951723337	-0.2485248738555279	0.7294988268770984	0.7294988268766394	-0.1626416342657698	-0.1684582229059489	0.2325859310059466	0.02519618970094401	-0.2077939794747386	0.01169838104373513	-0.3052662448306118	1.188252922410689	-0.2405082970262527	0.6512757419766192	-0.1375305976548624	1.60305135854407	1.603051358544238	0.01425562631626172	-0.04320846093128082	0.7455103990091355	0.1426340251202287	-0.07439368050084515	0.03096738960999458	-0.01198985815000907	-0.2350136003454428	-0.0177919614397809	0.02800999324201627	0.1053775651910999	-39.17959812802836	-10.27330808569524	6.977301273061483	3.844347833945915	-538.4076267915201	-72.39510780359433	-29.08904279901755	0.1379373832365231	0.1580766142685278	-0.1744733106950499	-0.9158650909311088	0.5605533928951497	-0.3066641382656543	0.8014723958098667	-1.522372668998545	-1.522372669005587	-0.0921839408818094	0.1148539298442614	-0.6186528366016161	0.4071643989545415	-1.196151823057008e-07	-6.570346170694823e-07	3.107709108198066e-07	-1.109498073518918e-07	-8.745916209330306e-08	-4.535573006556499e-07	-1.02667397469569e-07
0.54	-0.1313768386441238	0.06308798034612033	0.808370459739515	0.6796482811314757	-0.4518525116841349	-0.2614213813405106	-0.249860048964942	0.7454511267954497	0.7454511267951297	-0.1625034104371398	-0.1688840992696225	0.2400091744928793	0.0266428627249856	-0.2063666146041037	0.01325980996775734	-0.3068130895944242	1.178628724677185	-0.2348318160821054	0.64797354266949	-0.1295058291554941	1.587193299109074	1.587193299109195	0.01339115188083245	-0.04195873267825606	0.7390372543409696	0.1466721267681989	-0.07650009341639766	0.03273840458423739	-0.01196920226790471	-0.2375164011111272	-0.02086739025811005	0.02812669708628076	0.1071697123013773	-40.25029862782866	-10.10315875692779	6.912067759750887	4.265713766599251	-540.4055617896207	-72.21273442240035	-28.3656926669089	0.1461896270020535	0.1540848253059553	-0.1348425974655924	-1.005350636862137	0.577838026363967	-0.3491065844263094	0.8049072362966965	-1.648117222673271	-1.648117222673212	-0.07540946830017799	0.1426740532181424	-0.6742652321893281	0.4054934943780787	-1.098795945645194e-07	-5.980328935533199e-07	2.893603790099023e-07	-1.030523369887244e-07	-7.351294797832689e-08	-4.150665580886932e-07	-9.494333361179466e-08
